PathFileType	4	(X/Y/Z)	/Users/niels/Desktop/University/Third Semester/Perception and Action/Exam/Gymnastics Motion Tracking/Code for Gym Tracking/Analyzed Data/Webcam_Backflip/id1_4_baseline_Sports2D/id1_4_baseline_Sports2D_px_person00.trc
DataRate	CameraRate	NumFrames	NumMarkers	Units	OrigDataRate	OrigDataStartFrame	OrigNumFrames
29.87551867219917	29.87551867219917	7	22	m	29.87551867219917	210	241
Frame#	Time	Hip			RHip			RKnee			RAnkle			RBigToe			RSmallToe			RHeel			LHip			LKnee			LAnkle			LBigToe			LSmallToe			LHeel			Neck			Head			Nose			RShoulder			RElbow			RWrist			LShoulder			LElbow			LWrist		
		X1	Y1	Z1	X2	Y2	Z2	X3	Y3	Z3	X4	Y4	Z4	X5	Y5	Z5	X6	Y6	Z6	X7	Y7	Z7	X8	Y8	Z8	X9	Y9	Z9	X10	Y10	Z10	X11	Y11	Z11	X12	Y12	Z12	X13	Y13	Z13	X14	Y14	Z14	X15	Y15	Z15	X16	Y16	Z16	X17	Y17	Z17	X18	Y18	Z18	X19	Y19	Z19	X20	Y20	Z20	X21	Y21	Z21	X22	Y22	Z22
210	7.029166666666667	0.9323422912605419	-0.5894015150957881	0.0	0.9185497231574113	-0.584433592243805	0.0	0.9183051770296207	-0.6887164344958381	0.0	0.9020879672580487	-0.8020852529795606	0.0	0.943575436071823	-0.8274305359617726	0.0	0.9326324515393911	-0.8301506148910667	0.0	0.8950450872938617	-0.8199355527880481	0.0	0.9461981800279996	-0.5865827483632117	0.0	0.9287482555579307	-0.6899770384212346	0.0	0.9063958700258535	-0.7985707488177688	0.0	0.9466152893045	-0.8245640219245529	0.0	0.9451698946144934	-0.8209740370714197	0.0	0.8943369529641616	-0.8146909454040903	0.0	0.9377807132432453	-0.4281446643378863	0.0	0.952460336482596	-0.3593704248257591	0.0	0.9499760005480966	-0.3988489769464494	0.0	0.8993985666846862	-0.4528322539481666	0.0	0.8791940725739175	-0.5234851216696202	0.0	0.8964881162766034	-0.5921924690889018	0.0	0.9607121209319397	-0.45809976028852745	0.0	0.9488845917752667	-0.5284439296245224	0.0	0.9613255358856541	-0.59599807535572	0.0
211	7.062638888888889	0.9325712685418155	-0.5867906301185694	0.0	0.9186092985040974	-0.5814484439181766	0.0	0.9187479625132482	-0.6862985288351163	0.0	0.9022113520057271	-0.7997800730682767	0.0	0.943741484468558	-0.8245846106170773	0.0	0.9322093826995134	-0.8274830445258007	0.0	0.894938048414132	-0.8171738152845086	0.0	0.9470104750197623	-0.583434933451401	0.0	0.9293524971450149	-0.6874720531949563	0.0	0.9066383779601216	-0.7957034556831151	0.0	0.9466503336423461	-0.8216207494181138	0.0	0.9455622443040734	-0.818178494221571	0.0	0.8939657358111396	-0.8116933120822272	0.0	0.9374270663429158	-0.4259844102436745	0.0	0.9527975920104866	-0.3561572281526273	0.0	0.9500512900794604	-0.3961129308421468	0.0	0.8993374110729457	-0.44997093791129456	0.0	0.8790271954978319	-0.520926718515332	0.0	0.8959781707033875	-0.5890327241868865	0.0	0.9608237203433907	-0.4554963778165244	0.0	0.9468989144417124	-0.5248363006824293	0.0	0.9586316391481642	-0.5927821343821581	0.0
212	7.096111111111111	0.9328303218361893	-0.5846966264964633	0.0	0.9187627527017802	-0.5791738121603105	0.0	0.919122500079292	-0.6845552154785888	0.0	0.9023383859053276	-0.7980372811368313	0.0	0.9436666668173007	-0.8223719273798392	0.0	0.9317583547176067	-0.8254035238512981	0.0	0.8948086077672891	-0.8151193158097788	0.0	0.9477826310900033	-0.5809602776400862	0.0	0.92974440420007	-0.6855943008889647	0.0	0.9068223905493749	-0.79349944808619	0.0	0.9466954416172679	-0.8193200535672146	0.0	0.9459562049979426	-0.8160304527193588	0.0	0.8936363935997581	-0.809386907590843	0.0	0.9370659112505288	-0.42451214429285045	0.0	0.9530981384055985	-0.3536526560687054	0.0	0.9501622211510823	-0.3941322984104812	0.0	0.899274970736017	-0.4477451407023567	0.0	0.8789613528341098	-0.5189965643043891	0.0	0.8956540899768174	-0.5866222886454475	0.0	0.9609727699713315	-0.4535156340196729	0.0	0.9453451233890188	-0.5219167799916409	0.0	0.9567719859044828	-0.5901920895274144	0.0
213	7.129583333333334	0.9330531680385946	-0.5833205156149448	0.0	0.9189707857432522	-0.5777346782062575	0.0	0.9193988224340152	-0.683604782336357	0.0	0.9024585718600885	-0.7970210960461477	0.0	0.9434580508560387	-0.8210860348843441	0.0	0.9314161269526108	-0.8241939665398156	0.0	0.8946869821531316	-0.8139727928229012	0.0	0.9482779748482644	-0.5793723270760366	0.0	0.9298910858314381	-0.6845287738772022	0.0	0.906903689274075	-0.7922709740916569	0.0	0.9467028872037585	-0.8179892367993992	0.0	0.9462521043489363	-0.8148245527850227	0.0	0.8934137259164635	-0.8080727073323856	0.0	0.9368088924294091	-0.4237767585678817	0.0	0.9532703811339045	-0.35215486168068744	0.0	0.9502843596940338	-0.39305666539885525	0.0	0.8992212298443746	-0.44638801154992463	0.0	0.8789295278146539	-0.5178653026778631	0.0	0.895614647917159	-0.5851535566821795	0.0	0.961101656484625	-0.45233789202986513	0.0	0.9445398993705804	-0.5202143634282791	0.0	0.9560316866649523	-0.5886596437172071	0.0
214	7.163055555555555	0.9331944553499509	-0.5828221631599941	0.0	0.9191996320098356	-0.5772640998451454	0.0	0.9195690075418531	-0.6835179172020412	0.0	0.902564377521665	-0.796830620119491	0.0	0.9432533933418169	-0.8208455076229838	0.0	0.9313057645411437	-0.8239667169707445	0.0	0.8945953964605986	-0.8138265143023449	0.0	0.9483402231131829	-0.5788548082845373	0.0	0.9297911559654338	-0.6844102065453582	0.0	0.9068612442961465	-0.7921869169194236	0.0	0.9467032586262141	-0.817765851713927	0.0	0.9463819797562768	-0.8146990812352788	0.0	0.8933515137513268	-0.8078908214547845	0.0	0.9367397054852502	-0.42377220227870027	0.0	0.953264102479915	-0.35183732109889276	0.0	0.9504050779928016	-0.3929448618720714	0.0	0.899192984303155	-0.4460336601724188	0.0	0.8788650362662622	-0.5175617979348213	0.0	0.8958906437978804	-0.584647785645802	0.0	0.9611476097295027	-0.4520361914473678	0.0	0.9445970473902441	-0.5200044536002062	0.0	0.9565283183014255	-0.5883883603549899	0.0
215	7.196527777777778	0.9332495668138008	-0.5833301663419765	0.0	0.9194675121688688	-0.5779406252886471	0.0	0.9196294449957947	-0.6843531873739597	0.0	0.9026416988601194	-0.7975002988400349	0.0	0.9432064132315879	-0.8216033703318154	0.0	0.9315632712873432	-0.8246697198344828	0.0	0.8945569235171765	-0.8146934737858815	0.0	0.9479183029355577	-0.579610990627847	0.0	0.929444299626826	-0.6852923109972594	0.0	0.9067087145224644	-0.7932433053045131	0.0	0.9468003236814182	-0.8186188749154201	0.0	0.9463601702852287	-0.8156405496587842	0.0	0.8934622047585383	-0.8088435685095827	0.0	0.9368736093642072	-0.4244932286874824	0.0	0.9530635613798591	-0.35275663827925685	0.0	0.9505135177103732	-0.3938167261155051	0.0	0.8992241758472651	-0.44671224298042844	0.0	0.8787343999046586	-0.5180106598867645	0.0	0.8965124131174432	-0.585019406023454	0.0	0.9610520439445206	-0.4526122624116058	0.0	0.9453959549406817	-0.5212392253190196	0.0	0.9580896927308491	-0.5892538576785642	0.0
216	7.23	0.933233685902972	-0.5849094883983228	0.0	0.9198176865459473	-0.5799104460025345	0.0	0.919566523526995	-0.6861470742549187	0.0	0.9026614997942007	-0.7989852578876153	0.0	0.9434318006434549	-0.823174266651351	0.0	0.9322970182765848	-0.8261129454997552	0.0	0.8945987978056241	-0.8164931517033414	0.0	0.947069205665272	-0.581792513008739	0.0	0.9288372612337428	-0.6871444061521186	0.0	0.9064945265861045	-0.7952826178667665	0.0	0.9471029028102622	-0.8203702952922337	0.0	0.946267688410392	-0.8174853175333802	0.0	0.8937157715601153	-0.8108031413273215	0.0	0.9371567521786343	-0.42593685510280177	0.0	0.952684422282648	-0.3548428672508317	0.0	0.9505905242480261	-0.395659762682357	0.0	0.8993588020504328	-0.44835095638104344	0.0	0.8785006935892333	-0.5190944900985971	0.0	0.897532684627686	-0.5860810461423223	0.0	0.9607719132683271	-0.4540096617043258	0.0	0.9466586274909594	-0.5236091900867379	0.0	0.9602965015188037	-0.5908577898007646	0.0
